<?xml version="1.0" encoding="UTF-8" standalone="no"?>
<svg width="13px" height="19px" viewBox="0 0 13 19" version="1.1" xmlns="http://www.w3.org/2000/svg" xmlns:xlink="http://www.w3.org/1999/xlink">
    <!-- Generator: Sketch 39.1 (31720) - http://www.bohemiancoding.com/sketch -->
    <title>Group</title>
    <desc>Created with Sketch.</desc>
    <defs>
        <path d="M8.5,9.5 L12,6 L12,1 L1,1 L1,6 L4.5,9.5 L1,13 L1,18 L12,18 L12,13 L8.5,9.5 Z" id="path-1"></path>
        <mask id="mask-2" maskContentUnits="userSpaceOnUse" maskUnits="objectBoundingBox" x="0" y="0" width="11" height="17" fill="white">
            <use xlink:href="#path-1"></use>
        </mask>
    </defs>
    <g id="Page-1" stroke="none" stroke-width="1" fill="none" fill-rule="evenodd">
        <g id="Artboard-Copy" transform="translate(-3.000000, 0.000000)">
            <g id="Group" transform="translate(3.000000, 0.000000)">
                <use id="Combined-Shape" stroke="#C9E3F7" mask="url(#mask-2)" stroke-width="2" xlink:href="#path-1"></use>
                <polygon id="Rectangle-2" fill="#FFC944" points="3 5 10 5 9 6 7 8 6 8 4 6"></polygon>
                <polygon id="Rectangle-2-Copy" fill="#FFC944" transform="translate(6.500000, 14.000000) scale(1, -1) translate(-6.500000, -14.000000) " points="3 14 3 11 10 11 10 14 9.46474788 14.5352521 9 15 7 17 6 17 4 15"></polygon>
                <rect id="Rectangle-path" fill="#4990E2" x="0.0306203209" y="0" width="12.9693797" height="2"></rect>
                <rect id="Rectangle-path" fill="#4990E2" x="0.0306203209" y="17" width="12.9693797" height="2"></rect>
            </g>
        </g>
    </g>
</svg>